<?xml version="1.0" encoding="utf-8"?>
<!-- Generator: Adobe Illustrator 23.0.1, SVG Export Plug-In . SVG Version: 6.00 Build 0)  -->
<svg version="1.1" id="Capa_1" xmlns="http://www.w3.org/2000/svg" xmlns:xlink="http://www.w3.org/1999/xlink" x="0px" y="0px"
	 viewBox="0 0 29.7 29.7" style="enable-background:new 0 0 29.7 29.7;" xml:space="preserve">
<style type="text/css">
	.st0{fill:#F0D8D9;}
</style>
<g>
	<path class="st0" d="M29.8,5.8c0,1.2-0.3,2.7-0.9,4.4c-1.4,3.6-4,7.5-7.6,11c-3.5,3.5-7.4,6.2-11,7.6c-3.3,1.2-6,1.2-7.2,0
		c-0.2-0.2-0.4-0.4-0.6-0.5c-1.1-1.2-2.5-2.5-2.4-4.1c0-1.2,0.8-2.3,2.2-3.4c4.2-3.4,5.7-1.9,7.5-0.1l0.3,0.2
		c0.3,0.3,1.6,0.8,6.7-4.3c1.7-1.7,2.9-3.1,3.6-4.2c0.5-0.7,1.2-2,0.6-2.5l-0.3-0.3c-1.8-1.7-3.3-3.3,0.1-7.5
		c1.1-1.4,2.3-2.1,3.4-2.2c1.7-0.1,3,1.3,4.1,2.5c0.2,0.2,0.4,0.4,0.5,0.6C29.5,3.6,29.8,4.6,29.8,5.8z"/>
</g>
</svg>
